<?xml version="1.0" standalone="no"?>
<!DOCTYPE svg PUBLIC "-//W3C//DTD SVG 20010904//EN"
 "http://www.w3.org/TR/2001/REC-SVG-20010904/DTD/svg10.dtd">
<svg version="1.0" xmlns="http://www.w3.org/2000/svg"
 width="260.000000pt" height="260.000000pt" viewBox="0 0 260.000000 260.000000"
 preserveAspectRatio="xMidYMid meet">
<metadata>
Created by potrace 1.11, written by Peter Selinger 2001-2013
</metadata>
<g transform="translate(0.000000,260.000000) scale(0.100000,-0.100000)"
fill="#000000" stroke="none">
<path d="M1175 2544 c-543 -59 -985 -463 -1101 -1004 -25 -118 -25 -362 0
-480 107 -501 485 -879 986 -986 118 -25 362 -25 480 0 501 107 879 485 986
986 25 118 25 362 0 480 -106 494 -477 871 -966 981 -84 18 -303 32 -385 23z
m689 -661 c5 -79 9 -198 7 -230 -1 -19 -29 -16 -39 5 -6 9 -13 36 -17 59 -4
28 -20 57 -46 87 -53 60 -106 76 -256 76 l-113 0 0 -542 c0 -299 5 -561 10
-583 13 -57 47 -83 120 -91 50 -5 60 -10 60 -25 0 -18 -13 -19 -290 -19 -276
0 -290 1 -290 19 0 15 10 19 57 24 61 6 100 29 120 68 10 18 13 160 13 587 l0
562 -105 0 c-150 0 -195 -12 -244 -65 -36 -39 -50 -70 -66 -147 -5 -28 -28
-37 -40 -17 -4 6 -4 80 0 165 l7 154 553 0 552 0 7 -87z"/>
</g>
</svg>
